<svg width="33" height="33" viewBox="0 0 33 33" fill="none" xmlns="http://www.w3.org/2000/svg">
<rect width="32.2188" height="32.2188" rx="16.1094" fill="#298CCF"/>
<circle cx="16" cy="16" r="11" fill="#76C556"/>
<path d="M16.1094 4C9.41992 4 4 9.41992 4 16.1094C4 22.7988 9.41992 28.2188 16.1094 28.2188C22.7988 28.2188 28.2188 22.7988 28.2188 16.1094C28.2188 9.41992 22.7988 4 16.1094 4ZM16.1094 8.6875C18.4824 8.6875 20.4062 10.6113 20.4062 12.9844C20.4062 15.3574 18.4824 17.2812 16.1094 17.2812C13.7363 17.2812 11.8125 15.3574 11.8125 12.9844C11.8125 10.6113 13.7363 8.6875 16.1094 8.6875ZM16.1094 25.4844C13.2432 25.4844 10.6748 24.1855 8.95605 22.1543C9.87402 20.4258 11.6709 19.2344 13.7656 19.2344C13.8828 19.2344 14 19.2539 14.1123 19.2881C14.7471 19.4932 15.4111 19.625 16.1094 19.625C16.8076 19.625 17.4766 19.4932 18.1064 19.2881C18.2187 19.2539 18.3359 19.2344 18.4531 19.2344C20.5479 19.2344 22.3447 20.4258 23.2627 22.1543C21.5439 24.1855 18.9756 25.4844 16.1094 25.4844Z" fill="white"/>
</svg>
